<svg t="1744716769235" class="icon" viewBox="0 0 1024 1024" version="1.1" xmlns="http://www.w3.org/2000/svg" p-id="2966" width="200" height="200"><path d="M851.48 855.07v-61.43c0-147.6-119.66-267.26-267.26-267.26S316.96 646.04 316.96 793.64v61.43h534.52z" fill="#5c92c1" p-id="2967"></path><path d="M521.26 488.31c-80.86 0-146.64-65.78-146.64-146.64s65.78-146.64 146.64-146.64S667.9 260.81 667.9 341.67s-65.78 146.64-146.64 146.64z m0-257.28c-61.01 0-110.64 49.63-110.64 110.64s49.63 110.64 110.64 110.64S631.9 402.68 631.9 341.67s-49.63-110.64-110.64-110.64z" fill="#444444" p-id="2968"></path><path d="M806.52 819.65H236v-79.43c0-76.2 29.67-147.83 83.55-201.71 53.88-53.88 125.51-83.55 201.71-83.55s147.83 29.67 201.71 83.55c53.88 53.88 83.55 125.51 83.55 201.71v79.43z m-534.52-36h498.52v-43.43c0-66.58-25.93-129.18-73.01-176.25-47.08-47.08-109.67-73.01-176.25-73.01s-129.18 25.93-176.25 73.01C297.93 611.05 272 673.64 272 740.22v43.43z" fill="#444444" p-id="2969"></path></svg>