<svg t="1744716696542" class="icon" viewBox="0 0 1024 1024" version="1.1" xmlns="http://www.w3.org/2000/svg" p-id="2810" width="200" height="200"><path d="M690.51 480.93m-166.37 0a166.37 166.37 0 1 0 332.74 0 166.37 166.37 0 1 0-332.74 0Z" fill="#F8F800F9" p-id="2811"></path><path d="M214.73 519.02l-21.46-28.9L546.7 227.57l352.89 262.56-21.49 28.88-331.42-246.58-331.95 246.59z" fill="#444444" p-id="2812"></path><path d="M794.81 803.76H298.02l0.33-379.37 36 0.03-0.3 343.34h424.76V424.43h36v379.33z" fill="#444444" p-id="2813"></path><path d="M638.63 768.25l-36-0.02 0.09-177.78h-112.6v177.77h-36V554.45h184.62l-0.11 213.8z" fill="#444444" p-id="2814"></path></svg>