<svg class="icon" viewBox="0 0 1024 1024" version="1.1" xmlns="http://www.w3.org/2000/svg" width="200" height="200">
    <path d="M273.84 672.87m-191.98 0a191.98 191.98 0 1 0 383.96 0 191.98 191.98 0 1 0-383.96 0Z" fill="#F8F800F9"/>
    <path d="M798 763.01H198.11V332.49h255.34v36H234.11v358.52H762V368.49H542.65v-36H798v430.52z" fill="#444444"/>
    <path d="M556.82 400.19H439.3V269.66h117.52v130.53z m-81.52-36h45.52v-58.53H475.3v58.53zM452.47 648.96H314.13V445.71h138.34v203.25z m-102.34-36h66.34V481.71h-66.34v131.25zM507.32 445.71h181.26v36H507.32zM507.67 612.96h181.26v36H507.67zM507.32 529.34h181.26v36H507.32z"
          fill="#444444"/>
</svg>