<svg class="icon" viewBox="0 0 1024 1024" version="1.1" xmlns="http://www.w3.org/2000/svg" width="200" height="200">
    <path d="M512 512m-512 0a512 512 0 1 0 1024 0 512 512 0 1 0-1024 0Z" fill="#F5F5F5"/>
    <path d="M512 170.666667C323.6864 170.666667 170.666667 323.6864 170.666667 512s153.019733 341.333333 341.333333 341.333333 341.333333-153.019733 341.333333-341.333333S700.3136 170.666667 512 170.666667z m82.397867 480.221866c0 2.3552 0 7.0656-2.389334 9.4208-2.321067 2.3552-4.676267 4.7104-9.386666 4.7104h-141.243734a17.851733 17.851733 0 0 1-9.4208-4.7104c-2.3552-2.389333-2.3552-7.0656-2.3552-9.4208l21.162667-124.757333c-28.228267-18.8416-44.714667-51.780267-44.714667-84.753067A105.472 105.472 0 0 1 512 335.4624a105.472 105.472 0 0 1 105.915733 105.915733c0 35.328-16.452267 65.911467-44.714666 84.753067l21.162666 124.757333z"
          fill="#AAAAAA"/>
</svg>