<svg class="icon" viewBox="0 0 1024 1024" version="1.1" xmlns="http://www.w3.org/2000/svg"
     width="200" height="200">
    <path d="M651.474635 279.19911H372.275525c-25.683479 0-46.538184 20.844707-46.538184 46.538183v372.26548c0 25.683479 20.844707 46.538184 46.538184 46.538183h279.19911c25.683479 0 46.538184-20.844707 46.538183-46.538183V325.727296c-0.009997-25.683479-20.854705-46.528186-46.538183-46.528186z m11.637045 418.803663c0 6.41837-5.23867 11.637045-11.637045 11.637045H372.275525c-6.398375 0-11.637045-5.208677-11.637045-11.637045V325.727296c0-6.398375 5.23867-11.637045 11.637045-11.637045h279.19911c6.398375 0 11.637045 5.23867 11.637045 11.637045v372.275477z"
          fill="#999999"/>
    <path d="M581.672358 634.019019H442.067804c-9.637553 0-17.44557 7.818015-17.44557 17.44557 0 9.637553 7.818015 17.44557 17.44557 17.445571h139.604554c9.637553 0 17.44557-7.818015 17.44557-17.445571 0.009997-9.627556-7.808017-17.44557-17.44557-17.44557z"
          fill="#999999"/>
    <path d="M651.474635 314.100248H372.275525c-6.398375 0-11.637045 5.23867-11.637045 11.637045v372.26548c0 6.41837 5.23867 11.637045 11.637045 11.637045h279.19911c6.398375 0 11.637045-5.208677 11.637045-11.637045V325.727296c0-6.398375-5.23867-11.627048-11.637045-11.627048z m-69.802277 354.819909H442.067804c-9.637553 0-17.44557-7.818015-17.44557-17.44557 0-9.627556 7.818015-17.44557 17.44557-17.445571h139.604554c9.637553 0 17.44557 7.818015 17.44557 17.445571 0.009997 9.627556-7.808017 17.44557-17.44557 17.44557z"
          fill="#F5F5F5"/>
</svg>