<svg t="1746362993792" class="icon" viewBox="0 0 1024 1024" version="1.1" xmlns="http://www.w3.org/2000/svg" p-id="21201" width="200" height="200"><path d="M495.7952 106.52672v417.41824h417.41312v39.18848c0 61.62432-12.0832 121.42592-35.90144 177.7408-22.99392 54.3744-55.9104 103.20384-97.83808 145.1264-41.91744 41.92256-90.74688 74.83904-145.12128 97.83808-56.32 23.81824-116.1216 35.89632-177.74592 35.89632-61.62432 0-121.4208-12.07808-177.7408-35.89632-54.3744-22.99904-103.20384-55.91552-145.1264-97.8432-41.91744-41.91744-74.83392-90.74176-97.83808-145.12128C12.0832 684.55424 0 624.75264 0 563.13344 0 501.504 12.07808 441.7024 35.89632 385.3824c22.99904-54.3744 55.92064-103.20384 97.8432-145.12128 41.91744-41.92256 90.74688-74.83904 145.12128-97.8432 56.32-23.81824 116.1216-35.8912 177.7408-35.8912h39.1936zM417.41312 186.90048c-86.2208 8.81664-166.13376 46.6688-228.2496 108.78976-71.44448 71.43424-110.78144 166.41536-110.78144 267.4432s39.33696 196.00896 110.77632 267.4432C260.59776 902.016 355.584 941.3632 456.6016 941.3632c101.02784 0 196.00896-39.34208 267.44832-110.78144 62.12096-62.12096 99.968-142.03392 108.78464-228.2496H417.41312V186.89536z" fill="#409EFFFF" p-id="21202"></path><path d="M614.43072 4.26496c109.39904 0 212.2496 42.5984 289.60768 119.9616C981.4016 201.5744 1024 304.4352 1024 413.83424v39.18848h-448.76288V4.26496h39.1936z m39.18848 80.65536v289.72544h289.72032c-8.62208-73.63584-41.50272-141.7728-94.72-195.00032-53.22752-53.2224-121.36448-86.09792-195.00032-94.72z" fill="#f1c137" p-id="21203"></path></svg>