<svg t="1744823610904" class="icon" viewBox="0 0 1024 1024" version="1.1" xmlns="http://www.w3.org/2000/svg" p-id="19509" width="200" height="200"><path d="M866.461538 846.769231H157.538462a59.076923 59.076923 0 1 1 0-118.153846h39.384615V452.923077c0-146.766769 100.489846-269.725538 236.307692-304.758154V78.769231a78.769231 78.769231 0 0 1 157.538462 0v69.395692C726.587077 183.197538 827.076923 306.156308 827.076923 452.923077v275.692308h39.384615a59.076923 59.076923 0 1 1 0 118.153846z m-354.461538 177.230769a118.153846 118.153846 0 0 1-118.153846-118.153846h236.307692a118.153846 118.153846 0 0 1-118.153846 118.153846z" fill="#f1c137" p-id="19510"></path></svg>