<svg t="1744824370062" class="icon" viewBox="0 0 1024 1024" version="1.1" xmlns="http://www.w3.org/2000/svg" p-id="26662" width="200" height="200"><path d="M511.56376 1.454132c281.520023 0 511.272934 229.607498 511.272934 511.272934 0 281.665436-229.752911 511.272934-511.272934 511.272934C229.898324 1024 0.290826 794.247089 0.290826 512.727066 0.290826 231.06163 229.898324 1.454132 511.56376 1.454132z" fill="#409EFFFF" p-id="26663"></path><path d="M592.413519 668.755467c2.326612-8.143141 9.742687-14.105084 19.049134-15.122976 1.017893-0.145413 2.181199-0.145413 3.053678-0.145413h257.526839c8.433968 0 14.541323 2.762851 18.90372 8.724794 4.798637 6.543596 5.525703 13.959671 2.181199 21.521158-3.199091 7.270662-9.015621 11.487646-16.722522 12.069299-2.472025 0.145413-5.089463 0.290826-7.852315 0.290826H616.697529c-6.398182 0-11.633059-0.290826-16.286282-3.926157-7.270662-5.816529-10.469753-14.83215-7.997728-23.411531zM730.119852 285.155354c5.089463-4.071571 11.778472-5.525703 18.322068-4.071571 9.161034 2.035785 15.995456 10.469753 15.995456 20.21244 0.145413 12.214712 0.145413 24.72025 0 36.789548v29.082647c0 12.650951 0 25.738143-0.145413 38.534507 0 2.181199 0.290826 3.489918 1.163305 4.362397 0.872479 0.872479 2.035785 1.163306 4.362397 1.163306h0.145414c35.917069-0.145413 71.834138-0.145413 102.807157-0.145413 7.125249 0 13.378018 2.762851 17.449588 7.561488 4.071571 4.798637 5.525703 11.342232 4.362397 18.322068-1.454132 8.433968-9.015621 15.26839-17.740415 16.286282-2.762851 0.290826-5.525703 0.290826-7.852314 0.290827h-18.467481c-26.028969 0-53.075831 0-79.54104-0.145414-2.326612 0-4.071571 0.145413-5.234876 1.308719-1.017893 1.017893-1.308719 2.472025-1.308719 5.089464 0.290826 31.263845 0.145413 63.109344 0.145413 93.936949v8.433968c0 10.615166-5.816529 18.758307-15.26839 21.230332-6.689009 1.744959-13.523431 0.43624-18.758307-3.489917-5.234876-4.071571-8.288554-10.32434-8.288554-17.304175v-69.943766-28.064755c0-10.615166-0.145413-10.760579-10.76058-10.760579h-94.954842c-6.107356 0-12.505538-0.727066-17.740415-5.525703-6.543596-6.107356-8.870207-15.122976-5.816529-22.975291 3.199091-8.433968 11.051406-13.959671 19.7762-13.959671h88.9929c5.089463 0 10.32434-0.145413 15.413802 0.145414 2.035785 0.145413 3.344504-0.145413 4.071571-1.017893 1.017893-1.017893 1.163306-2.617438 1.163306-4.362397-0.145413-31.990912-0.145413-66.017609 0-103.82505-0.145413-7.125249 2.617438-13.232604 7.706901-17.158761zM218.556092 322.671968c-3.053678 0.727066-4.362397 0.145413-5.816529-2.472025-4.798637-8.724794-8.870207-15.995456-13.378018-23.120704-1.308719-2.035785-1.744959-3.199091-1.454132-4.216984 0.290826-1.017893 1.308719-1.744959 3.489917-2.762851 66.163022-30.973019 127.236581-72.415791 181.475717-123.310424 18.322068-17.158762 31.700085-31.263845 43.187731-45.514342h63.545584v645.925589c0 4.798637-0.145413 9.742687 0 14.541324 0.581653 21.811985 14.541323 34.60835 37.080375 33.881283 16.431696-0.43624 33.299631-0.43624 49.4405-0.436239 9.015621 0 18.322068 0 27.483101-0.145414 1.308719 0 2.181199 0.145413 2.617438 0.727067 0.581653 0.581653 0.727066 1.599546 0.727066 2.908264 0 8.870207 0 17.885828 0.145414 26.610622 0 3.199091 0 6.543596 0.145413 9.742687H237.314399c0-3.199091 0-6.398182 0.145414-9.597273 0.145413-7.997728 0.145413-16.140869-0.145414-24.138597-0.145413-2.762851 0.290826-4.216984 1.017893-5.089464 0.872479-0.872479 2.326612-1.308719 4.94405-1.163306 20.939506 0.290826 45.659756 0.43624 70.816245-0.290826 15.704629-0.43624 26.319796-7.561488 31.845499-21.084919 3.489918-8.579381 3.780744-17.449588 3.780744-27.483101V272.504402v-0.581653-1.454132c0.145413-2.326612 0-3.489918-0.87248-3.926157-0.727066-0.43624-2.035785-0.145413-3.926157 1.017892-5.525703 3.489918-11.487646 7.125249-18.90372 11.196819-38.67992 21.957398-72.852031 35.771656-107.460381 43.914797z" fill="#FFFFFF" p-id="26664"></path><path d="M592.849759 425.042886c-3.053678 7.852315-0.727066 16.867935 5.816529 22.975291 5.234876 4.798637 11.633059 5.525703 17.740415 5.525703h94.954842c10.469753 0 10.760579 0.145413 10.760579 10.760579v98.00852c0 6.979835 3.053678 13.378018 8.288555 17.304175 5.234876 3.926157 12.069298 5.234876 18.758307 3.489918 9.45186-2.472025 15.26839-10.615166 15.26839-21.230332v-8.433968c0-30.827606 0.145413-62.673104-0.145413-93.93695 0-2.617438 0.43624-4.071571 1.308719-5.089463 1.163306-1.163306 2.908265-1.308719 5.234876-1.308719 26.465209 0.145413 53.51207 0.145413 79.54104 0.145413h18.46748c2.326612 0 5.089463 0 7.852315-0.290826 8.724794-1.017893 16.140869-7.852315 17.740415-16.286283 1.308719-6.979835-0.290826-13.523431-4.362397-18.322067-4.071571-4.798637-10.178926-7.561488-17.449589-7.561488-30.973019 0-66.890088-0.145413-102.807157 0.145413h-0.145413c-2.326612 0-3.635331-0.290826-4.362397-1.163306-0.872479-0.872479-1.163306-2.181199-1.163306-4.362397 0.145413-12.941778 0.145413-25.883556 0.145414-38.534507v-13.668844-0.145414-15.268389V301.005396c0-9.597274-6.834422-18.176654-15.995456-20.212439-6.689009-1.454132-13.378018 0-18.322068 4.07157-4.94405 3.926157-7.852315 10.178926-7.852315 16.867935-0.145413 37.807441 0 71.834138 0 103.82505 0 1.744959-0.145413 3.489918-1.163305 4.362397-0.727066 0.727066-2.035785 1.017893-4.071571 1.017893-5.089463-0.290826-10.32434-0.145413-15.413803-0.145413H612.625959c-8.724794 0.290826-16.431696 5.816529-19.7762 14.250497z m-0.581653-0.290827c3.344504-8.724794 11.342232-14.39591 20.503266-14.39591 20.794093-0.145413 41.879012 0 62.236864 0h26.756036c5.089463 0 10.32434-0.145413 15.413802 0.145413 1.890372 0.145413 2.908265-0.145413 3.635331-0.727066s0.872479-1.744959 0.87248-3.926157c-0.145413-31.990912-0.145413-66.017609 0-103.82505 0-6.979835 2.908265-13.232604 8.143141-17.449588 5.234876-4.216984 12.069298-5.671116 18.90372-4.216984 9.597274 2.035785 16.577109 10.905993 16.577109 20.794092 0.145413 12.214712 0.145413 24.72025 0 36.789549v29.082647c0 12.650951 0 25.738143-0.145413 38.534507 0 2.035785 0.290826 3.199091 0.872479 3.926157 0.727066 0.727066 1.890372 1.017893 3.926158 1.017893h0.145413c35.917069-0.145413 71.834138-0.145413 102.807157-0.145413 7.416075 0 13.814257 2.762851 18.031241 7.852315 4.216984 4.94405 5.816529 11.778472 4.50781 18.90372-1.599546 8.724794-9.306447 15.850043-18.322067 16.867935-2.762851 0.290826-5.525703 0.290826-7.852315 0.290827H850.812837c-26.028969 0-53.075831 0-79.541039-0.145413-2.617438 0-3.926157 0.290826-4.653224 1.163305-0.727066 0.727066-1.163306 2.181199-1.163306 4.507811 0.290826 31.263845 0.145413 63.109344 0.145414 93.936949v8.433968c0 10.760579-6.252769 19.33996-15.850043 21.957398-2.035785 0.581653-4.071571 0.872479-6.107356 0.87248-4.798637 0-9.45186-1.599546-13.232604-4.50781-5.38029-4.216984-8.579381-10.760579-8.579381-17.885828v-69.943766-28.064755c0-10.033513 0-10.033513-10.033513-10.033513h-94.954843c-6.252769 0-12.796365-0.727066-18.176654-5.671116-7.125249-6.543596-9.597274-15.850043-6.398182-24.138597zM600.411247 692.312411c-7.706901-5.961943-10.905993-14.977563-8.433968-23.702357 2.326612-8.288554 10.033513-14.39591 19.33996-15.413803 1.017893-0.145413 2.035785-0.145413 3.199092-0.145413h257.526839c7.706901 0 14.39591 2.326612 19.194547 8.870207 5.089463 6.834422 5.525703 14.39591 2.181198 21.811985-3.199091 7.125249-8.870207 11.633059-17.013348 12.360125-2.617438 0.145413-5.234876 0.290826-7.852315 0.290827H616.697529c-5.671116 0-11.342232-0.145413-16.286282-4.071571z m-7.997728-23.556944c-2.472025 8.579381 0.727066 17.595001 8.288554 23.411531 4.653224 3.635331 9.8881 3.926157 16.286283 3.926157h251.855722c2.617438 0 5.38029-0.145413 7.852315-0.290826 7.706901-0.581653 13.378018-4.798637 16.722522-12.069299 3.344504-7.561488 2.617438-14.977563-2.181198-21.521158-4.362397-5.816529-10.469753-8.724794-18.903721-8.724794H614.807157c-0.872479 0-2.035785 0-3.053678 0.145413-9.597274 1.017893-17.013348 6.979835-19.33996 15.122976z" fill="#FFFFFF" p-id="26665"></path><path d="M611.317239 653.196251c-9.306447 1.017893-17.013348 7.125249-19.33996 15.413803-2.472025 8.870207 0.727066 17.885828 8.433968 23.702357 4.94405 3.780744 10.615166 3.926157 16.431695 3.926158h251.855723c2.617438 0 5.234876-0.145413 7.852315-0.290827 8.143141-0.727066 13.814257-5.234876 17.013348-12.360125 3.344504-7.416075 2.762851-14.977563-2.181198-21.811985-4.798637-6.543596-11.487646-8.870207-19.194547-8.870207H614.661744c-1.163306 0.145413-2.326612 0.145413-3.344505 0.290826z m-19.630786 15.413803c2.472025-8.433968 10.033513-14.541323 19.630786-15.704629 1.163306-0.145413 2.181199-0.145413 3.199092-0.145414h257.526839c8.724794 0 14.977563 2.908265 19.485373 9.015621 4.94405 6.689009 5.816529 14.39591 2.326612 22.248225-3.344504 7.561488-9.306447 11.778472-17.304175 12.505538-2.472025 0.145413-5.234876 0.290826-7.852315 0.290827H616.842942c-5.089463 0-11.487646 0-16.722522-4.071571-7.706901-6.107356-11.051406-15.26839-8.433967-24.138597zM349.137177 766.327748V272.504402v-0.581653-1.454132c0.145413-1.890372 0-2.908265-0.43624-3.199091-0.43624-0.290826-1.599546 0-3.053678 1.017892-5.525703 3.489918-11.487646 7.125249-18.90372 11.196819-38.970747 21.811985-73.28827 35.771656-107.896621 43.769384-3.344504 0.727066-4.94405 0-6.543595-2.908265-4.798637-8.724794-8.870207-15.995456-13.378018-23.120704-1.163306-1.890372-1.890372-3.344504-1.454132-4.798637 0.290826-1.163306 1.454132-2.181199 3.780744-3.199091 66.163022-30.827606 127.091167-72.270378 181.184891-123.16501 18.322068-17.304175 31.700085-31.263845 43.18773-45.514342 0-0.145413 0.145413-0.145413 0.290827-0.145414h63.981823c0.145413 0 0.145413 0 0.290827 0.145414 0 0.145413 0.145413 0.145413 0.145413 0.290826v646.361829c0 4.798637-0.145413 9.742687 0 14.541324 0.581653 21.375746 14.250497 33.881284 36.353309 33.29963 16.431696-0.43624 33.299631-0.43624 49.585913-0.436239 9.015621 0 18.322068 0 27.483101-0.145413 1.454132 0 2.472025 0.290826 3.199091 0.872479 0.727066 0.727066 0.872479 1.890372 0.87248 3.489918 0 8.870207 0 17.885828 0.145413 26.610622 0 3.344504 0 6.689009 0.145413 10.033513 0 0.145413 0 0.145413-0.145413 0.290826-0.145413 0-0.145413 0.145413-0.290826 0.145413H237.023573c-0.145413 0-0.145413 0-0.290827-0.145413 0-0.145413-0.145413-0.145413-0.145413-0.290826 0-3.344504 0-6.543596 0.145413-9.8881 0.145413-7.997728 0.145413-16.140869-0.145413-24.138597-0.145413-2.617438 0.145413-4.50781 1.308719-5.671116 1.017893-1.017893 2.617438-1.454132 5.525703-1.454133 20.939506 0.290826 45.659756 0.43624 70.816246-0.290826 15.26839-0.43624 25.883556-7.270662 31.263845-20.64868 3.344504-8.433968 3.635331-17.304175 3.635331-27.046861z m0.727066 0c0 9.8881-0.290826 18.903721-3.780744 27.483101-5.525703 13.668844-16.286282 20.794093-31.845498 21.084919-25.15649 0.727066-49.87674 0.43624-70.816246 0.290827-2.617438 0-4.216984 0.290826-4.94405 1.163306-0.872479 0.872479-1.163306 2.326612-1.017892 5.089463 0.290826 7.997728 0.145413 16.286282 0.145413 24.138597 0 3.199091 0 6.398182-0.145413 9.597273h369.640443c0-3.199091 0-6.398182-0.145414-9.742686 0-8.724794-0.145413-17.740415-0.145413-26.610622 0-1.454132-0.145413-2.472025-0.727066-2.908265-0.43624-0.43624-1.308719-0.727066-2.617438-0.727066-9.161034 0.145413-18.467481 0.145413-27.483102 0.145413-16.286282 0-33.008804 0-49.4405 0.43624-22.539051 0.581653-36.353309-12.069298-37.080374-33.881284-0.145413-4.798637-0.145413-9.742687 0-14.541324V127.818233v-4.50781-1.890372h-63.545584c-11.487646 14.250497-24.72025 28.210168-43.187731 45.514343-54.239137 50.894632-115.167282 92.337404-181.475717 123.310423-2.181199 1.017893-3.199091 1.890372-3.489918 2.762851-0.290826 0.872479 0.145413 2.181199 1.454133 4.216984 4.50781 7.125249 8.579381 14.39591 13.378017 23.120704 1.454132 2.617438 2.762851 3.199091 5.81653 2.472025 34.60835-7.997728 68.78046-21.957398 107.751207-43.769383 7.416075-4.071571 13.378018-7.706901 18.90372-11.196819 1.890372-1.163306 3.053678-1.599546 3.926158-1.017893 0.727066 0.43624 1.017893 1.599546 0.872479 3.926157V766.327748z" fill="#FFFFFF" p-id="26666"></path></svg>